<svg aria-hidden="true" style="position:absolute;width:0;height:0" xmlns="http://www.w3.org/2000/svg" overflow="hidden"><defs>
<symbol id="icon-logo" viewBox="0 0 190 85"><path d="M112.759 42.4925C112.759 43.1851 112.737 43.8776 112.759 44.5713C112.995 51.6175 110.795 57.9658 107.263 63.9519C106.078 65.9593 104.946 68.0008 103.926 70.0977C103.084 71.8217 101.915 73.03 100.096 73.7365C99.0801 74.1296 98.138 74.8116 97.2866 75.5137C93.3665 78.7497 88.9194 81.0672 84.1629 82.6995C81.0036 83.7832 77.7504 84.7368 74.318 84.6942C73.2948 84.6824 72.2694 84.9968 71.2441 85C70.2187 85.0032 69.1944 84.6707 68.1787 84.7144C63.7529 84.9041 59.6526 83.5424 55.5821 82.1135C51.1393 80.5557 47.216 78.0944 43.5254 75.161C38.3175 71.0237 34.6066 65.8122 31.8784 59.8465C30.4081 56.6307 29.211 53.3117 28.8728 49.7433C28.8162 49.1509 28.6199 48.5648 28.446 47.9905C27.2083 43.9874 27.92 40.0621 28.6861 36.0738C29.2718 33.0233 29.8747 30.01 31.0152 27.114C34.0305 19.454 38.819 13.1813 45.4513 8.25442C50.9803 4.15114 57.1687 1.62908 63.897 0.545451C71.6175 -0.698 79.1546 0.197029 86.4675 3.10268C90.1166 4.5571 93.5596 6.39936 96.5664 8.83832C99.3714 11.1132 101.901 13.7748 104.291 16.4951C106.457 18.9607 107.995 21.8972 109.368 24.8934C111.512 29.5742 112.91 34.4191 112.768 39.6241C112.737 40.5863 112.76 41.5399 112.759 42.4925ZM109.795 33.0094C109.581 31.3739 109.448 29.4783 109.048 27.6393C107.908 22.3469 104.843 18.2159 100.757 14.8425C98.4378 12.9246 95.9091 11.2581 93.4167 9.56287C92.5727 8.98856 91.5922 8.46113 90.6063 8.28426C88.0723 7.81756 85.5094 7.38177 82.9412 7.25071C78.4834 7.02376 74.4791 5.87407 71.1139 2.77556C68.6364 0.496437 65.9391 0.275876 63.3645 2.28223C60.4464 4.5539 57.1249 5.88792 53.7395 7.20809C51.2588 8.17557 48.8698 9.39452 46.4841 10.5985C44.491 11.6065 43.3301 13.1781 43.3579 15.5585C43.3739 16.8936 42.7615 18.0092 41.5248 18.7486C40.4929 19.3691 39.5018 20.0549 38.5576 20.8019C35.919 22.8775 33.863 25.2152 33.4191 28.8433C33.0681 31.7127 32.1996 34.5491 30.2321 36.9124C29.5747 37.7256 29.1671 38.7115 29.0584 39.7509C28.877 41.8958 28.9517 44.0662 29.0051 46.2239C29.02 46.8014 29.2707 47.4205 29.5663 47.9287C30.2459 49.1296 30.9859 50.2953 31.7834 51.4215C33.7147 54.1055 35.3941 56.8556 35.7824 60.2652C36.158 63.5683 37.7542 66.2598 40.4547 68.3141C44.3662 71.2911 48.1368 74.4514 52.107 77.3507C54.2409 78.9127 56.5253 80.2787 59.34 80.5952C62.1546 80.9116 64.9138 81.6777 67.4372 83.0948C67.9662 83.3797 68.5463 83.5575 69.1443 83.618C72.7048 84.0016 76.0006 83.1204 79.1268 81.455C80.1074 80.9329 81.1167 80.4588 82.1314 80.0049C84.5747 78.9116 87.2838 78.1935 89.4124 76.6709C91.78 74.9735 94.3119 74.2202 97.0294 73.746C98.2031 73.5404 99.1634 73.0567 99.9273 72.184C100.84 71.1483 101.684 70.053 102.634 69.0525C103.617 68.02 104.326 66.9215 104.498 65.45C104.762 63.1943 105.727 61.2028 106.952 59.2892C109.026 56.0564 110.205 52.4838 110.819 48.6852C110.98 47.689 111.072 46.8462 110.578 45.9692C109.15 43.4387 109.733 40.565 109.281 37.8714C109.053 36.4148 109.579 34.8219 109.8 33.0062L109.795 33.0094ZM92.6111 7.72806C92.0083 7.06211 91.8173 6.76057 91.5442 6.57411C91.0512 6.23314 90.5135 5.95505 89.9896 5.6599C85.5083 3.13677 80.6003 1.91037 75.5856 1.02919C74.5783 0.851251 73.5189 0.931165 72.4914 0.970589C72.2236 0.980179 71.9045 1.24016 71.7349 1.47457C71.657 1.58112 71.832 1.95406 71.9803 2.132C73.0957 3.46067 74.5506 4.46291 76.1905 5.03232C79.0215 6.05081 81.9977 6.60949 85.0058 6.68706C86.2798 6.72222 87.5505 6.96302 88.8191 7.13563C89.901 7.28907 90.9819 7.4734 92.6111 7.72806ZM54.5386 80.4428C51.5308 77.9857 48.8944 75.7897 46.2109 73.6523C43.9895 71.8835 41.7201 70.1745 39.4496 68.4686C39.1946 68.2768 38.7923 68.2821 38.2343 68.1383C40.97 72.7285 50.1054 79.7022 54.5386 80.4428ZM34.2737 23.1066C36.0876 21.7214 37.7659 20.2638 39.6086 19.0576C42.1917 17.3752 43.1797 15.2836 42.5694 11.6928C40.7364 13.1909 39.4293 14.9959 38.0156 16.6357C36.5218 18.3651 35.4143 20.4247 34.1692 22.3607C34.0732 22.5174 34.2289 22.8263 34.2737 23.1066ZM95.4482 75.4924C93.756 75.3763 92.052 75.6746 90.9904 76.5878C88.976 78.3192 86.5796 79.1897 84.1416 80.056C82.8612 80.5099 81.6545 81.1769 80.4488 81.813C80.2823 81.9004 80.2514 82.3682 80.2855 82.6441C80.2973 82.7368 80.7486 82.8892 80.9343 82.8263C83.1237 82.0805 85.3856 81.4795 87.4587 80.4822C90.0013 79.2633 92.3881 77.7193 94.8208 76.2873C95.0758 76.1445 95.2102 75.8067 95.4482 75.4924ZM30.8018 51.4822C30.3153 52.9153 30.4113 53.7091 30.7176 54.5541C31.5658 56.8982 32.0811 59.3723 33.6101 61.4202C34.1767 62.1799 34.2929 63.8783 35.3386 63.5118C36.2594 63.1922 35.1817 61.8475 35.1188 60.9407C34.8776 57.4768 33.0553 54.6851 30.8018 51.4822ZM47.215 8.34499L47.4422 8.68702C48.7066 8.21819 49.9827 7.77494 51.2342 7.27309C53.9543 6.18272 56.6658 5.0721 59.3688 3.94123C59.914 3.71108 60.4133 3.34242 60.8785 2.96949C61.0087 2.86294 60.9852 2.50493 60.9447 2.2833C60.9233 2.18421 60.6662 2.07659 60.5179 2.0702C60.2643 2.07573 60.0128 2.11734 59.771 2.19379C56.0964 3.23693 52.6309 4.78085 49.3148 6.65509C48.5391 7.09408 47.9096 7.77601 47.215 8.34499ZM111.75 45.5473C111.972 45.2894 112.146 45.1818 112.158 45.0604C112.516 41.2863 112.116 37.5464 111.599 33.816C111.573 33.6285 111.313 33.36 111.136 33.3376C110.941 33.312 110.636 33.474 110.518 33.6487C110.323 33.9254 110.202 34.247 110.166 34.5832C109.971 37.6597 110.174 40.7485 110.77 43.7732C110.887 44.3838 111.393 44.9208 111.75 45.5473ZM29.9141 35.133C31.3481 34.5864 31.5626 33.5965 31.7162 32.7036C32.0907 30.5247 33.0275 28.4277 32.7181 26.1241C31.219 28.8731 29.8896 31.6584 29.9152 35.133H29.9141ZM64.6204 82.9659C61.4056 81.5445 60.5339 81.3954 57.6723 81.7939C58.8854 82.2531 59.9769 82.983 61.0748 82.9947C62.2197 83.0117 63.4595 84.4129 64.6214 82.9659H64.6204Z"  /><path d="M71.2494 54.7011C69.0515 54.6617 67.5417 53.7421 66.4235 51.9659C65.3822 50.3091 63.6494 49.4492 62.0628 48.4284C60.0623 47.1424 58.4352 45.6911 57.9732 43.0838C57.6531 41.3162 58.0254 39.7808 58.7435 38.3849C59.3463 37.2182 60.4218 36.1346 61.5518 35.4409C62.7766 34.6887 63.7924 33.979 64.3579 32.5896C64.9981 30.9914 66.6113 30.8944 68.04 30.6067C69.3854 30.3361 70.7533 30.1624 72.0795 29.8236C73.8933 29.3611 75.5397 29.5039 76.8648 30.9157C77.8891 32.011 79.0852 32.7963 80.4189 33.4612C81.806 34.1517 82.2637 34.9583 81.8294 36.401C81.5339 37.3802 81.8198 38.0472 82.1847 38.8293C82.5838 39.6817 82.9946 40.5479 83.2688 41.4483C84.1821 44.4445 83.1311 46.9666 80.3186 48.3006C78.5752 49.1274 77.2404 50.2292 76.8062 52.1673C76.6322 52.9483 76.1446 53.3916 75.4554 53.594C74.0641 54.0011 72.6525 54.3367 71.2494 54.7011ZM80.4765 42.1398C80.5213 36.8613 76.5181 32.6408 71.3124 32.6344C66.6412 32.6344 61.9423 35.7936 61.7598 41.8478C61.6137 46.6938 65.6521 51.2073 70.9165 51.2243C77.3279 51.2563 80.3517 46.8067 80.4765 42.1398ZM61.7086 47.1861C61.7086 46.5095 61.7737 46.1632 61.699 45.851C61.0087 42.9837 60.5595 40.1441 62.1258 37.3823C62.2389 37.1841 61.9785 36.7749 61.8911 36.4638C61.5838 36.5629 61.2125 36.5832 60.9799 36.7739C58.3925 38.8964 57.238 43.9927 61.7086 47.1861ZM71.3177 31.3099C72.4007 31.7063 73.0184 31.9876 73.665 32.1623C76.0497 32.7931 78.0844 33.9268 79.5003 36.0174C79.7798 36.4287 80.1404 37.0403 80.6739 36.5714C80.9577 36.321 81.0506 35.556 80.8873 35.1735C80.6664 34.6652 80.165 34.0313 79.6827 33.9311C78.3725 33.6573 77.6555 32.709 76.8019 31.8821C75.3658 30.5044 73.7621 30.0718 71.3177 31.3099ZM71.1705 52.0874L71.1385 51.8882C70.4513 51.8882 69.7578 51.8295 69.0813 51.9127C68.7335 51.9553 68.4177 52.2504 68.088 52.4316C68.3878 52.6969 68.6492 53.1146 68.9949 53.2009C70.8429 53.6665 72.7058 53.7666 74.5282 53.0538C74.8397 52.9313 75.1865 52.7715 75.3818 52.5211C75.5546 52.308 75.6112 51.9297 75.576 51.6431C75.5621 51.5365 75.131 51.3756 74.9176 51.4097C73.6661 51.6058 72.4199 51.853 71.1758 52.0842L71.1705 52.0874ZM80.6216 46.6735C81.902 46.4359 82.4739 45.7146 82.5486 44.6054C82.6039 43.6705 82.5903 42.7328 82.508 41.7999C82.4878 41.5538 82.1442 41.3343 81.9489 41.102C81.6641 41.3716 81.0858 41.7338 81.138 41.8958C81.6577 43.5143 80.5715 44.9634 80.6216 46.6703V46.6735Z"  /><path d="M92.3337 53.9819C92.2601 54.0192 91.9635 54.2674 91.6423 54.3015C91.35 54.3356 90.9232 54.2376 90.7418 54.033C89.8317 53.0069 88.9482 51.9521 88.1341 50.8493C87.9207 50.5605 87.8332 49.7838 87.9549 49.7166C88.355 49.4961 89.1371 49.2659 89.311 49.4567C90.3406 50.5914 91.2465 51.8391 92.1769 53.0624C92.2676 53.1849 92.2398 53.3948 92.3337 53.9819Z"  /><path d="M48.745 62.8693C49.2209 62.9077 50.1609 62.9364 51.0774 63.0931C51.3057 63.1325 51.6109 63.5789 51.6109 63.8453C51.6109 64.1117 51.3473 64.572 51.119 64.6285C49.3372 65.0706 47.5639 65.1793 45.9869 63.9892C45.8978 63.9063 45.8289 63.8041 45.7854 63.6905C45.742 63.577 45.7251 63.455 45.7361 63.3339C45.7703 63.1559 46.0466 62.9077 46.2323 62.8949C46.9162 62.8374 47.6023 62.8693 48.745 62.8693Z"  /><path d="M104.581 25.3996L105.256 25.7682C105.065 26.1103 104.947 26.6601 104.669 26.7591C103.386 27.2304 102.069 27.6057 100.731 27.8822C100.346 27.9578 99.7865 27.5796 99.4312 27.2674C99.0214 26.9062 99.2658 26.122 99.7822 26.0431C101.3 25.8098 102.829 25.6308 104.581 25.3996Z"  /><path d="M59.2258 70.4984C59.9385 70.8308 60.5349 70.9246 60.8262 71.2794C61.6238 72.2682 62.3535 73.3098 63.0103 74.3971C63.3304 74.9149 63.038 75.4754 62.4992 75.6245C62.2037 75.7066 61.6681 75.4658 61.4504 75.1983C60.5806 74.152 59.7747 73.0543 59.0369 71.9112C58.8662 71.6395 59.1308 71.094 59.2258 70.4984Z"  /><path d="M87.1909 29.2663C87.2357 28.9637 87.1909 28.6174 87.3328 28.4842C87.5249 28.3095 87.9367 28.1645 88.1341 28.2594C88.4041 28.3883 88.579 28.7421 88.7647 29.0202C89.2811 29.7937 89.7922 30.5715 90.2841 31.3643C90.5039 31.7191 90.7994 32.0973 90.8176 32.4799C90.8389 32.8336 90.6234 33.2929 90.3566 33.5358C90.2083 33.6722 89.5969 33.5837 89.4465 33.3951C88.4606 32.1432 87.2784 30.9711 87.1909 29.2663Z"  /><path d="M90.2585 15.9645C90.0451 17.2431 89.9597 18.1839 89.7111 19.0853C89.5553 19.5723 89.2582 20.0021 88.8575 20.3203C88.5748 20.5483 88.0818 20.5153 87.6839 20.5984C87.6519 20.2265 87.5356 19.8387 87.6028 19.486C87.8108 18.397 88.0893 17.3209 88.339 16.2404C88.3582 16.1563 88.3529 16.0667 88.3774 15.9847C88.5737 15.3326 88.9984 14.8361 89.678 15.1057C90.0205 15.242 90.1806 15.8398 90.2585 15.9645Z"  /><path d="M71.8619 24.2797C72.4615 24.3543 73.2372 24.3948 73.9776 24.5738C74.2305 24.6345 74.604 25.0895 74.5602 25.2855C74.4834 25.6361 74.191 26.0975 73.8827 26.2019C73.3939 26.3543 72.8706 26.3569 72.3804 26.2093C71.5268 25.9376 70.7319 25.8471 69.8805 26.203C69.3214 26.4374 68.7965 26.1912 68.6471 25.635C68.4476 24.8892 69.0088 24.528 69.6394 24.4225C70.3116 24.3106 71.0061 24.3287 71.8619 24.2797Z"  /><path d="M85.1701 61.0143C84.9279 62.0723 84.7433 63.0004 84.4819 63.9071C84.4307 64.0851 84.0551 64.3248 83.8972 64.2843C83.6134 64.2151 83.2144 63.9913 83.1567 63.759C83.0291 63.2574 83.0145 62.7337 83.1141 62.2257C83.3147 61.2966 83.512 60.4144 83.1354 59.465C82.9562 59.01 83.0074 58.2844 83.6988 58.2866C84.0711 58.2866 84.6068 58.7468 84.7743 59.1272C85.0463 59.7356 85.0645 60.4517 85.1701 61.0143Z"  /><path d="M74.6712 60.7425C74.5325 60.9908 74.4652 61.2838 74.2828 61.4096C73.1593 62.1831 72.0336 62.9599 70.8514 63.6365C70.5495 63.8091 70.0192 63.7025 69.634 63.5885C69.0696 63.4213 68.9522 62.6796 69.4206 62.3792C70.7138 61.5513 72.0144 60.7298 73.3471 59.9669C73.5605 59.8443 73.9873 59.9764 74.2625 60.1128C74.4492 60.2066 74.5293 60.5092 74.6712 60.7425Z"  /><path d="M60.3568 11.0375C60.5392 11.1441 60.8828 11.2379 60.9287 11.4062C61.3747 13.0482 61.8046 14.6954 62.1589 16.3576C62.257 16.819 61.6457 17.0758 61.236 16.7998C59.946 15.9325 59.1426 12.72 59.8948 11.3764C59.9727 11.2432 60.1626 11.176 60.3568 11.0375Z"  /><path d="M76.2972 15.7013C75.9088 15.4424 75.4895 15.3102 75.433 15.0865C75.3722 14.8435 75.5728 14.4291 75.7904 14.2341C76.737 13.389 77.7271 12.5938 78.7566 11.8516C79.1033 11.6076 79.8235 11.435 80.0903 11.6257C80.7198 12.0679 80.389 12.6912 79.9505 13.1472C79.3615 13.762 78.7768 14.4099 78.0983 14.9064C77.5776 15.2804 76.9097 15.4413 76.2972 15.7013Z"  /><path d="M51.7688 24.3767L50.8256 25.2674C50.5567 24.9765 50.1577 24.7347 50.0446 24.3873C49.5922 23.0277 49.2134 21.6436 48.8538 20.2563C48.8047 20.0656 48.9605 19.6756 49.1206 19.6096C49.382 19.503 49.812 19.4604 50.0104 19.6096C50.402 19.8983 50.849 20.2851 50.9771 20.7188C51.3132 21.8482 51.4903 23.0288 51.7688 24.3767Z"  /><path d="M41.4427 47.1669C40.5774 48.7513 39.9201 50.3741 38.309 51.2382C38.038 51.3831 37.4384 51.1977 37.1481 50.9665C36.6552 50.5755 37.1481 50.2505 37.3882 49.917C38.1447 48.877 38.8436 47.7923 39.647 46.7918C39.854 46.535 40.38 46.4082 40.7374 46.4434C40.9807 46.4658 41.1791 46.8792 41.4427 47.1669Z"  /><path d="M51.2171 47.3011C51.6685 47.5622 51.996 47.64 52.0568 47.8115C52.1571 48.0928 52.2094 48.535 52.0568 48.73C51.8093 49.0411 51.3857 49.2201 51.0208 49.429C50.0744 49.9713 49.1408 50.5435 48.1571 51.0059C47.8573 51.1465 47.3142 51.1039 47.0474 50.9143C46.498 50.5232 46.6911 49.8967 47.1328 49.6207C48.4836 48.7758 49.9037 48.0363 51.2171 47.3011Z"  /><path d="M100.135 40.126C99.7875 40.9091 99.2989 42.0908 98.7195 43.2266C98.6299 43.4024 98.0686 43.4983 97.8307 43.3928C97.6098 43.2938 97.3687 42.8494 97.4135 42.6086C97.6461 41.346 97.9033 40.0791 98.2948 38.8602C98.4143 38.4883 98.9542 38.1505 99.3693 38.0259C99.5229 37.98 99.9252 38.5586 100.116 38.9124C100.225 39.1116 100.135 39.4185 100.135 40.126Z"  /><path d="M41.1717 30.7111C42.7028 32.0835 42.5203 33.9471 42.69 35.6679C42.722 35.9875 42.324 36.4446 42.006 36.6759C41.8396 36.7973 41.1631 36.6023 41.1471 36.4905C40.906 34.7526 40.7203 33.0052 40.572 31.2556C40.5603 31.1064 40.9199 30.9242 41.1717 30.7111Z"  /><path d="M76.9502 73.2069C77.2069 73.2747 77.4595 73.3573 77.7067 73.4541C78.6264 73.8803 79.5515 74.2948 80.4488 74.7636C80.8756 74.9852 81.3024 75.2623 81.6096 75.616C81.9628 76.0262 81.5595 76.8137 81.0655 76.706C79.3968 76.3459 77.7664 75.843 76.5181 74.5963C76.3335 74.412 76.3378 73.9506 76.3975 73.6448C76.4327 73.4722 76.755 73.3529 76.9502 73.2069Z"  /><path d="M56.6427 31.213C56.7312 31.4889 57.0342 31.9173 56.9275 32.1858C56.3674 33.6082 55.7187 34.9977 55.0582 36.3775C54.9771 36.5469 54.6314 36.6972 54.4266 36.6695C54.2473 36.6471 53.9998 36.3956 53.9528 36.2049C53.6029 34.6674 54.7061 31.9151 55.9363 31.2226C56.0633 31.1512 56.266 31.213 56.6427 31.213Z"  /><path d="M104.358 54.5573C104.166 54.4358 103.766 54.2877 103.558 54.0011C103.475 53.8871 103.744 53.3671 103.975 53.2009C105.002 52.455 106.05 51.7422 107.142 51.105C107.437 50.9335 108.049 50.9207 108.266 51.1135C108.465 51.2925 108.495 51.9659 108.315 52.2131C107.399 53.4875 106.245 54.4592 104.358 54.5573Z"  /><path d="M98.0185 65.5299C97.2268 65.4479 96.8822 65.4393 96.5525 65.3658C96.4127 65.3349 96.2047 65.1698 96.2025 65.0621C96.1877 64.8197 96.2509 64.5789 96.3828 64.3749C96.5527 64.1822 96.7752 64.0434 97.023 63.9753C98.2436 63.6088 99.4653 63.2412 100.704 62.9439C100.973 62.88 101.539 63.0568 101.575 63.2103C101.656 63.5747 101.559 64.0147 101.416 64.3823C101.34 64.5763 101.038 64.7382 100.806 64.8085C99.7459 65.0994 98.6811 65.3594 98.0185 65.5299Z"  /><path d="M61.2648 56.7234C61.1773 57.0953 61.0354 57.9189 60.7611 58.6957C60.6929 58.8886 60.1594 59.074 59.914 59.0036C59.6686 58.9333 59.3805 58.5295 59.388 58.277C59.4136 56.8396 59.4851 55.4001 59.6312 53.9691C59.6622 53.6569 60.058 53.382 60.2863 53.0901C60.5595 53.3788 61.0023 53.6335 61.0716 53.9648C61.2263 54.7064 61.1933 55.4864 61.2648 56.7234Z"  /><path d="M118.465 11.747C118.465 8.70203 119.203 6.3932 120.677 4.82052C122.168 3.2311 124.078 2.4364 126.407 2.4364C128.735 2.4364 130.587 3.12235 131.96 4.49427C133.351 5.86618 134.046 8.0579 134.046 11.0694C134.046 14.0809 133.309 16.3563 131.835 17.8955C130.36 19.4347 128.392 20.2044 125.929 20.2044C123.801 20.2044 122.059 19.5937 120.702 18.3723C119.998 17.7366 119.446 16.8582 119.043 15.7373C118.658 14.5996 118.465 13.2695 118.465 11.747ZM126.331 2.68736C124.639 2.68736 123.249 3.44024 122.16 4.946C121.087 6.45176 120.551 8.6602 120.551 11.5713C120.551 14.4825 121.062 16.6073 122.084 17.9457C123.106 19.2842 124.463 19.9534 126.155 19.9534C127.864 19.9534 129.255 19.2005 130.327 17.6948C131.416 16.1723 131.96 13.9722 131.96 11.0945C131.96 8.20011 131.441 6.07532 130.402 4.72013C129.38 3.36495 128.023 2.68736 126.331 2.68736Z"  /><path d="M138.393 20.104H136.307V2.53678H138.393V10.6177H146.56V2.53678H148.646V20.104H146.56V10.8686H138.393V20.104Z"  /><path d="M159.368 20.104H159.041L161.227 2.53678H162.057L167.334 18.7739L172.586 2.53678H173.415L175.602 20.104H173.516L171.782 6.05022L167.233 20.104H165.65L161.051 6.22589L159.368 20.104Z"  /><path d="M189.523 2.53678C189.841 2.85466 190 3.26457 190 3.76649C190 4.18475 189.908 4.61138 189.724 5.04638L185.225 14.1562V20.104H183.139V14.7083L178.113 2.53678H180.249L185.049 13.8551L189.422 5.04638C189.606 4.62811 189.698 4.19312 189.698 3.74139C189.698 3.28966 189.573 2.93832 189.321 2.68736L189.523 2.53678Z"  /><path d="M3.54275 24.7198C4.84176 24.6608 6.11125 24.6313 7.35121 24.6313C8.62069 24.6313 9.94922 24.764 11.3368 25.0293C12.7539 25.2947 14.1415 25.7959 15.4995 26.5329C16.8871 27.2405 18.0533 28.1692 18.998 29.3191C19.9723 30.4394 20.7546 31.9283 21.3451 33.7857C21.9355 35.6431 22.2308 37.8985 22.2308 40.552C22.2308 43.2054 21.7879 45.5935 20.9022 47.7163C20.0461 49.8095 18.8651 51.4163 17.3595 52.5367C14.4367 54.7184 10.9087 55.8093 6.77551 55.8093C5.32889 55.8093 3.80846 55.7503 2.21422 55.6324H0V24.7198H3.54275ZM3.6756 55.2786C4.29559 55.3375 5.07794 55.367 6.02268 55.367C6.96741 55.367 7.67596 55.3523 8.14833 55.3228C8.62069 55.2933 9.2702 55.1754 10.0968 54.969C10.9235 54.7331 11.6911 54.4236 12.3996 54.0403C13.1082 53.657 13.8462 53.0969 14.6138 52.3598C15.411 51.5932 16.09 50.694 16.6509 49.6621C17.9204 47.2445 18.5552 44.0899 18.5552 40.1982C18.5552 37.4268 18.2156 35.0387 17.5366 33.0339C16.8576 30.9996 16.0752 29.496 15.1895 28.523C14.3334 27.5501 13.2853 26.7836 12.0454 26.2234C10.8054 25.6337 9.81637 25.2947 9.0783 25.2062C8.34023 25.1178 7.48406 25.0736 6.5098 25.0736C5.53555 25.0736 4.59081 25.1178 3.6756 25.2062V55.2786Z"  /><path d="M119.184 55.6324H118.609V24.6755H120.114L138.537 53.2885V24.6755H139.112V55.6324H135.88L119.184 29.9824V55.6324Z"  /><path d="M166.381 24.6755H166.957V42.3652C166.957 46.9939 166.042 50.3992 164.211 52.5809C162.381 54.7331 159.99 55.8093 157.037 55.8093C155.177 55.8093 153.598 55.6471 152.299 55.3228C151 54.969 149.775 54.3351 148.623 53.4212C146.262 51.5932 145.081 47.9079 145.081 42.3652V24.6755H148.756V42.3209C148.756 47.6868 149.568 51.2689 151.192 53.0674C152.019 53.9518 152.875 54.5562 153.76 54.8806C154.676 55.2049 155.768 55.367 157.037 55.367C159.872 55.367 162.13 54.3351 163.813 52.2713C165.525 50.1781 166.381 46.8613 166.381 42.3209V24.6755Z"  /><path d="M182.064 55.6324H178.389V25.1178H170.728V24.6755H189.77V25.1178H182.064V55.6324Z"  /></symbol>
<symbol id="icon-twitter" viewBox="0 0 40 32"><path d="M40.4 3.8c-1.4.6-3 1-4.7 1.3 1.7-1 3-2.6 3.6-4.4V.6c-1.5.9-3.3 1.6-5.2 2A8.4 8.4 0 0028 0a8.2 8.2 0 00-8.1 10c-6.9-.4-13-3.6-17-8.5a8 8 0 002.5 10.8c-1.4 0-2.7-.4-3.8-1 0 4 2.9 7.2 6.7 8a8.5 8.5 0 01-3.8.1c1 3.2 4.1 5.6 7.8 5.6A16.8 16.8 0 012 28.5l-2-.1C3.7 30.7 8 32 12.7 32A23.1 23.1 0 0036.3 8c1.6-1.2 3-2.6 4-4.2h.1z"/></symbol>
<symbol id="icon-rate5stars" viewBox="0 0 181 32"><path fill="var(--color1, #ab816c)" d="M14.7 3.9a1.3 1.3 0 012.6 0l2 6.2c.2.6.7 1 1.3 1H27c1.3 0 1.8 1.6.8 2.4l-5.3 3.8a1.3 1.3 0 00-.5 1.5l2 6.2c.4 1.3-1 2.3-2 1.5l-5.3-3.8a1.3 1.3 0 00-1.6 0L10 26.5c-1 .8-2.4-.2-2-1.5l2-6.2v-.4c0-.4-.2-.8-.5-1l-5.3-4c-1-.7-.5-2.3.8-2.3h6.5c.6 0 1.1-.4 1.3-1l2-6.2zm149.4 0a1.3 1.3 0 012.5 0l2 6.2c.2.6.7 1 1.3 1h6.5c1.3 0 1.9 1.6.8 2.4l-5.3 3.8a1.3 1.3 0 00-.5 1.5l2 6.2c.5 1.3-1 2.3-2 1.5l-5.3-3.8a1.3 1.3 0 00-1.6 0l-5.3 3.8c-1 .8-2.4-.2-2-1.5l2-6.2v-.4c0-.4-.1-.8-.5-1l-5.3-4c-1-.7-.5-2.3.8-2.3h6.6c.6 0 1-.4 1.2-1l2-6.2zm-37.4 0a1.3 1.3 0 012.6 0l2 6.2c.2.6.7 1 1.3 1h6.5c1.3 0 1.8 1.6.8 2.4l-5.3 3.8a1.3 1.3 0 00-.5 1.5l2 6.2c.4 1.3-1 2.3-2 1.5l-5.3-3.8a1.3 1.3 0 00-1.6 0l-5.3 3.8c-1 .8-2.4-.2-2-1.5l2-6.2v-.4c0-.4-.2-.8-.5-1l-5.3-4c-1-.7-.5-2.3.8-2.3h6.5c.6 0 1.1-.4 1.3-1l2-6.2zm-37.3 0a1.3 1.3 0 012.5 0l2 6.2c.2.6.7 1 1.3 1h6.6c1.3 0 1.8 1.6.8 2.4l-5.3 3.8a1.3 1.3 0 00-.5 1.5l2 6.2c.4 1.3-1 2.3-2 1.5l-5.3-3.8a1.3 1.3 0 00-1.6 0l-5.3 3.8c-1 .8-2.5-.2-2-1.5l2-6.2v-.4c0-.4-.2-.8-.5-1l-5.3-4c-1-.7-.5-2.3.8-2.3H86c.6 0 1-.4 1.3-1l2-6.2zm-37.3 0a1.3 1.3 0 012.5 0l2 6.2c.2.6.7 1 1.3 1h6.5c1.3 0 1.9 1.6.8 2.4L60 17.3a1.3 1.3 0 00-.5 1.5l2 6.2c.5 1.3-1 2.3-2 1.5l-5.3-3.8a1.3 1.3 0 00-1.6 0l-5.3 3.8c-1 .8-2.4-.2-2-1.5l2-6.2v-.4c0-.4-.1-.8-.5-1l-5.3-4c-1-.7-.5-2.3.8-2.3h6.6c.6 0 1-.4 1.2-1L52 4z"/></symbol>
<symbol id="icon-rate4stars" viewBox="0 0 181 32"><path fill="var(--color1, #ab816c)" d="M14.7 3.9a1.3 1.3 0 012.6 0l2 6.2c.2.6.7 1 1.3 1H27c1.3 0 1.8 1.6.8 2.4l-5.3 3.8a1.3 1.3 0 00-.5 1.5l2 6.2c.4 1.3-1 2.3-2 1.5l-5.3-3.8a1.3 1.3 0 00-1.6 0L10 26.5c-1 .8-2.4-.2-2-1.5l2-6.2v-.4c0-.4-.2-.8-.5-1l-5.3-4c-1-.7-.5-2.3.8-2.3h6.5c.6 0 1.1-.4 1.3-1l2-6.2z"/><path fill="none" stroke="var(--color1, #ab816c)" stroke-width="1.3" d="M164.7 4.1a.7.7 0 011.3 0h0l2 6.2a2 2 0 001.9 1.4s0 0 0 0h6.5a.7.7 0 01.4 1.2h0l-5.3 3.9a2 2 0 00-.7 2.2h0l2 6.2v.3a.7.7 0 01-1 .5h0l-5.3-3.9a2 2 0 00-2.3 0h0l-5.3 3.9-.4.1a.7.7 0 01-.7-.9h0l2-6.2.2-.6a2 2 0 00-.9-1.6h0l-5.3-3.9a.7.7 0 01.4-1.2h6.6s0 0 0 0a2 2 0 001.9-1.3h0l2-6.3z"/><path fill="var(--color1, #ab816c)" d="M126.7 3.9a1.3 1.3 0 012.6 0l2 6.2c.2.6.7 1 1.3 1h6.5c1.3 0 1.8 1.6.8 2.4l-5.3 3.8a1.3 1.3 0 00-.5 1.5l2 6.2c.4 1.3-1 2.3-2 1.5l-5.3-3.8a1.3 1.3 0 00-1.6 0l-5.3 3.8c-1 .8-2.4-.2-2-1.5l2-6.2v-.4c0-.4-.2-.8-.5-1l-5.3-4c-1-.7-.5-2.3.8-2.3h6.5c.6 0 1.1-.4 1.3-1l2-6.2zm-37.3 0a1.3 1.3 0 012.5 0l2 6.2c.2.6.7 1 1.3 1h6.6c1.3 0 1.8 1.6.8 2.4l-5.3 3.8a1.3 1.3 0 00-.5 1.5l2 6.2c.4 1.3-1 2.3-2 1.5l-5.3-3.8a1.3 1.3 0 00-1.6 0l-5.3 3.8c-1 .8-2.5-.2-2-1.5l2-6.2v-.4c0-.4-.2-.8-.5-1l-5.3-4c-1-.7-.5-2.3.8-2.3H86c.6 0 1-.4 1.3-1l2-6.2zm-37.3 0a1.3 1.3 0 012.5 0l2 6.2c.2.6.7 1 1.3 1h6.5c1.3 0 1.9 1.6.8 2.4L60 17.3a1.3 1.3 0 00-.5 1.5l2 6.2c.5 1.3-1 2.3-2 1.5l-5.3-3.8a1.3 1.3 0 00-1.6 0l-5.3 3.8c-1 .8-2.4-.2-2-1.5l2-6.2v-.4c0-.4-.1-.8-.5-1l-5.3-4c-1-.7-.5-2.3.8-2.3h6.6c.6 0 1-.4 1.2-1L52 4z"/></symbol>
<symbol id="icon-phone" viewBox="0 0 32 32"><path d="M29.4 21c-2 0-4-.3-5.8-1h.1c-.9-.2-2 0-2.5.6l-3.6 2.7a19.9 19.9 0 01-9-8.9l2.7-3.5a2.6 2.6 0 00.6-2.6c-.6-1.7-.9-3.7-.9-5.7C11 1.2 10 0 8.4 0H2.6A2.6 2.6 0 000 2.6 29.5 29.5 0 0029.4 32c1.4 0 2.6-1.2 2.6-2.6v-5.8c0-1.4-1.2-2.6-2.6-2.6z"/></symbol>
<symbol id="icon-people" viewBox="0 0 35 32"><path fill="var(--color2, #674d40)" d="M11.8 0a6.7 6.7 0 000 13.3c3.7 0 6.7-3 6.7-6.6 0-3.7-3-6.7-6.7-6.7zm0 12.2c-3 0-5.5-2.5-5.5-5.5C6.3 3.6 8.8 1 11.8 1a5.6 5.6 0 110 11.1zm13.7-9.4a5 5 0 000 10 5 5 0 000-10zm0 8.9a3.9 3.9 0 010-7.8c2.2 0 4 1.7 4 3.9 0 2.1-1.8 3.9-4 3.9z"/><path fill="var(--color2, #674d40)" d="M34.5 20.1a9 9 0 00-5.6-7s-1.5 1.2-3.4 1.1c-2 0-3.3-1-3.3-1s-1.6.6-2.8 1.8c-1.2-1-3.2-1.9-3.2-1.9s-1.8 1.4-4.4 1.3c-2.7 0-4.3-1.3-4.3-1.3s-6 2-7.2 9c0 0-1.4 3.6 1.7 9h19.7s1.3-2.4 1.6-3.8H33c2.4-3.7 1.5-7.2 1.5-7.2zM21 30.1H2.7c-2.3-4.6-1.3-7.9-1.3-7.9.6-3.5 2.8-6.4 6-7.8a8.8 8.8 0 009 0c3 1.4 5.3 4.3 5.9 7.8 0 0 1 4-1.3 7.8zm11.4-4h-8.9c.4-2 0-4 0-4-.5-2.6-1.7-4.7-3.3-6.4a8 8 0 011.9-1.3 7 7 0 006.8 0 8 8 0 014.5 5.9s.8 2.8-1 5.8z"/></symbol>
<symbol id="icon-menu" viewBox="0 0 60 32"><path d="M2 0h56a2 2 0 110 4H2a2 2 0 110-4zM2 14h56a2 2 0 110 4H2a2 2 0 110-4zM2 28h56a2 2 0 110 4H2a2 2 0 110-4z"/></symbol>
<symbol id="icon-location" viewBox="0 0 23 32"><path d="M11.7 1.2A11.7 11.7 0 0121.1 20l-8.6 11.6-.1.1a.9.9 0 01-1.4 0l-8.8-12a11.7 11.7 0 019.6-18.5zm0 18c3.5 0 6.4-2.8 6.4-6.3s-2.9-6.3-6.4-6.3a6.3 6.3 0 000 12.7z"/></symbol>
<symbol id="icon-instagram" viewBox="0 0 32 32"><path d="M16.3 32H16c-2.5 0-4.8 0-7-.2A8.8 8.8 0 01.5 25a21 21 0 01-.6-5v-4-4c0-1.6 0-3.3.5-5C1 5 2 3.4 3.5 2.3 5 1 6.9.3 8.9.2a111.5 111.5 0 0114.2 0A8.8 8.8 0 0131.5 7c.4 1.7.4 3.4.5 5v8.2-.2c0 1.6 0 3.3-.5 5-.5 2-1.5 3.6-3 4.7a9.5 9.5 0 01-5.4 2.1l-6.8.2zm-.3-2.5c2.5 0 4.7 0 7-.2a6.3 6.3 0 006.1-5c.3-1.4.3-2.9.4-4.4a363.1 363.1 0 000-8.1v.3c0-1.5 0-3-.4-4.5C28.7 6.2 28 5 27 4.2a6.9 6.9 0 00-4-1.5 108.8 108.8 0 00-14 0 6.3 6.3 0 00-6.1 5c-.3 1.4-.3 2.9-.4 4.4V20c0 1.4 0 3 .4 4.4C3.3 25.8 4 27 5 27.8c1.2 1 2.5 1.4 4 1.5l7 .2zm0-5.7a7.8 7.8 0 110-15.6 7.8 7.8 0 010 15.6zm0-13.1a5.3 5.3 0 100 10.6 5.3 5.3 0 000-10.6zm8.6-5a1.9 1.9 0 100 3.7 1.9 1.9 0 000-3.7z"/>
</symbol>
<symbol id="icon-facebook" viewBox="0 0 19 32"><path d="M16.7 0h-4.2C7.8 0 4.8 3.1 4.8 7.9v3.6H.7c-.4 0-.7.3-.7.7v5.2c0 .4.3.7.7.7h4.1v13.2c0 .4.3.7.7.7H11c.4 0 .7-.3.7-.7V18.1h4.9c.3 0 .6-.3.6-.7v-5.2c0-.4-.3-.7-.6-.7h-5v-3c0-1.5.4-2.3 2.4-2.3h2.8c.3 0 .6-.3.6-.7V.7c0-.4-.3-.7-.6-.7z"/></symbol>
<symbol id="icon-clock" viewBox="0 0 32 32"><path fill="var(--color2, #674d40)" d="M16 0a16 16 0 100 32 16 16 0 000-32zm0 31a15 15 0 110-30 15 15 0 010 30z"/><path fill="var(--color2, #674d40)" d="M16.5 13.9V8.5c0-.3-.2-.6-.5-.6s-.5.3-.5.6v5.4c-.8.2-1.4.8-1.6 1.5h-3.8c-.3 0-.5.2-.5.5s.2.6.5.6H14a2.1 2.1 0 102.6-2.6zM16 17a1 1 0 110-2.1 1 1 0 010 2.1zm0-11.7c.3 0 .5-.3.5-.6v-.5c0-.3-.2-.5-.5-.5s-.5.2-.5.5v.5c0 .3.2.6.5.6zm0 21.3c-.3 0-.5.2-.5.5v.6a.5.5 0 101 0V27c0-.3-.2-.5-.5-.5zm11.7-11.2h-.5a.5.5 0 100 1h.5a.5.5 0 100-1zm-22.9 0h-.5a.5.5 0 100 1h.5a.5.5 0 100-1zm19.1-8.1l-.4.3-.1.4.1.4.4.1.4-.1.4-.4a.5.5 0 00-.8-.7zM7.7 23.5l-.4.4-.1.3.1.4.4.2.4-.2.4-.4.1-.3a.5.5 0 00-.9-.4zm16.6 0a.5.5 0 00-.8 0l-.1.4.1.3.4.4.4.2.4-.2.1-.4-.1-.3-.4-.4zM8.1 7.3L7.7 7c-.2 0-.3 0-.4.2l-.1.3.1.4.4.4.4.1.4-.1.1-.4-.1-.4-.4-.3z"/></symbol>
<symbol id="icon-chefhat" viewBox="0 0 35 32"><path fill="var(--color2, #674d40)" d="M25 8.5a.5.5 0 01-.4-.5 7.2 7.2 0 00-14.4 0 .5.5 0 01-1 0 8.1 8.1 0 0116.3 0c0 .3-.2.5-.5.5z"/><path fill="var(--color2, #674d40)" d="M26.5 19.6c-.2 0-.3 0-.4-.2l-.1-.3.1-.4.4-.1c3.8 0 7-3.1 7-7 0-4-3.2-7-7-7h-.1c-.8 0-1.5 0-2.2.3a.5.5 0 01-.2-1 8 8 0 0110.6 7.7c-.1 4.4-3.7 8-8.1 8zm-18.2 0c-4.4 0-8-3.6-8-8a8 8 0 018-8h.1c.9 0 1.7 0 2.5.3.1 0 .3.3.3.5a.5.5 0 01-.7.5c-.6-.2-1.3-.4-2-.4h-.1c-4 0-7.1 3.2-7.2 7 0 4 3.2 7 7.1 7.1l.4.1a.5.5 0 010 .7l-.4.2z"/><path fill="var(--color2, #674d40)" d="M26.5 31.8H8.3a.5.5 0 01-.5-.5V19c0-.3.2-.5.5-.5s.5.2.5.5v11.7H26V19l.1-.4a.5.5 0 01.9.4v12.2c0 .2-.3.5-.5.5z"/><path fill="var(--color2, #674d40)" d="M29.9 27H11.7a.5.5 0 01-.3-.8l.3-.2H30a.5.5 0 010 1z"/></symbol>
<symbol id="icon-chat" viewBox="0 0 47 32"><path fill="var(--color2, #674d40)" d="M36 13.8C36 5.5 27.2 0 18.4 0 9.5 0 .8 5.5.8 13.8c0 3.2 1.3 6.3 3.8 8.7.1.1.2.3.1.4-.7 2.9-2.6 5.5-3.4 6.5a1 1 0 000 1c0 .4.4.6.8.6 3.8-.1 8.1-1.2 10.8-3.8a.4.4 0 01.4-.1c1.6.4 3.3.6 5 .6 8.9 0 17.7-5.5 17.7-13.9zm-22.4 12c-.6-.1-1.2 0-1.6.4-2.7 2.7-7.1 3.3-9.2 3.4 1-1.3 2.5-3.7 3.2-6.4.2-.6 0-1.2-.4-1.6A10.7 10.7 0 012 13.8C2.1 7 9.4 1.3 18.4 1.3S34.6 7 34.6 13.8c0 7-7.3 12.5-16.2 12.5-1.7 0-3.3-.1-4.8-.5z"/><path fill="var(--color2, #674d40)" d="M40.3 25c4-2 6.2-5.4 6.2-9 0-5.2-4.6-9.6-11-10.5h-.2a.7.7 0 000 1.3c5.7.8 9.9 4.7 9.9 9.2 0 3.1-2 6-5.5 7.8a1.7 1.7 0 00-.9 1.8c.3 1.5 1 3 1.6 4-4-.7-5.5-2.6-6-3.4-.2-.6-.8-.9-1.4-.9a16 16 0 01-2.3-.1c-.4 0-.6.2-.7.5a.7.7 0 00.6.8l2.4.2.3.1c1.8 3.2 6 4 7.7 4.2h.1c.4 0 .7-.2.8-.5a1 1 0 000-1 13.3 13.3 0 01-1.8-4.2c0-.2.1-.3.2-.3zM7.9 11.4a2.3 2.3 0 100 4.7 2.3 2.3 0 000-4.7zm0 3.4a1 1 0 010-2c.6 0 1 .4 1 1 0 .5-.4 1-1 1zm6.7-3.4a2.3 2.3 0 100 4.7 2.3 2.3 0 000-4.7zm0 3.4a1 1 0 010-2c.5 0 1 .4 1 1 0 .5-.5 1-1 1zm6.6-3.4a2.3 2.3 0 100 4.7 2.3 2.3 0 000-4.7zm0 3.4a1 1 0 010-2c.5 0 1 .4 1 1 0 .5-.5 1-1 1zm6.6-3.4a2.3 2.3 0 100 4.7 2.3 2.3 0 000-4.7zm0 3.4a1 1 0 010-2c.6 0 1 .4 1 1 0 .5-.4 1-1 1z"/></symbol>
</defs>
</svg>

