<svg aria-hidden="true" style="position:absolute;width:0;height:0" xmlns="http://www.w3.org/2000/svg" overflow="hidden"><defs><symbol id="icon-twitter" viewBox="0 0 40 32"><path d="M40.421 3.789c-1.39.607-3.002 1.055-4.689 1.265l-.086.009c1.709-.993 2.999-2.547 3.63-4.406L39.293.6c-1.514.891-3.276 1.57-5.148 1.938l-.107.017C32.508.978 30.369 0 28.002 0h-.021.001c-4.583 0-8.276 3.628-8.276 8.076 0 .64.056 1.256.192 1.843-6.871-.316-12.936-3.517-17.055-8.41l-.029-.036c-.709 1.165-1.13 2.573-1.133 4.08v.001c0 2.796 1.477 5.275 3.68 6.71-1.377-.036-2.661-.4-3.788-1.015l.044.022v.089c0 3.924 2.873 7.181 6.639 7.933-.674.18-1.41.266-2.173.266-.531 0-1.066-.03-1.57-.138 1.075 3.198 4.121 5.548 7.744 5.625-2.808 2.148-6.37 3.443-10.233 3.443h-.042.002c-.68 0-1.332-.029-1.984-.109 3.673 2.307 8.024 3.623 12.714 3.623 15.249 0 23.586-12.308 23.586-22.976 0-.357-.013-.702-.03-1.044 1.638-1.149 3.016-2.539 4.118-4.136l.036-.055z"/></symbol><symbol id="icon-rate5stars" viewBox="0 0 181 32"><path fill="var(--color1, #ab816c)" d="M14.732 3.903c.4-1.228 2.137-1.228 2.536 0l2.025 6.232c.179.538.678.92 1.267.92h6.553c1.292 0 1.828 1.653.784 2.413l-5.301 3.851c-.335.245-.549.637-.549 1.078 0 .147.024.289.068.422l-.003-.009 2.024 6.232c.4 1.229-1.007 2.251-2.051 1.491l-5.301-3.851c-.217-.159-.489-.255-.784-.255s-.567.096-.788.257l.004-.003-5.301 3.851c-1.044.76-2.451-.263-2.051-1.491l2.024-6.232c.041-.123.065-.265.065-.412 0-.442-.215-.833-.546-1.076l-.004-.003-5.301-3.851c-1.044-.76-.507-2.413.784-2.413h6.552c.589 0 1.088-.381 1.265-.911l.003-.009 2.025-6.232zm149.333 0c.399-1.228 2.137-1.228 2.536 0l2.025 6.232c.179.539.679.92 1.268.92h6.552c1.292 0 1.828 1.653.784 2.413l-5.301 3.851c-.335.245-.549.637-.549 1.078 0 .147.024.289.068.422l-.003-.009 2.024 6.232c.4 1.229-1.007 2.251-2.051 1.491l-5.301-3.851c-.217-.159-.489-.255-.784-.255s-.567.096-.788.257l.004-.003-5.301 3.851c-1.044.76-2.451-.263-2.051-1.491l2.024-6.232c.041-.123.065-.265.065-.412 0-.442-.215-.833-.546-1.076l-.004-.003-5.301-3.851c-1.044-.76-.508-2.413.784-2.413h6.552c.589 0 1.088-.381 1.265-.911l.003-.009 2.025-6.232zm-37.333 0c.4-1.228 2.137-1.228 2.536 0l2.025 6.232c.179.538.678.92 1.267.92h6.553c1.292 0 1.828 1.653.784 2.413l-5.301 3.851c-.335.245-.549.637-.549 1.078 0 .147.024.289.068.422l-.003-.009 2.024 6.232c.4 1.229-1.007 2.251-2.051 1.491l-5.301-3.851c-.217-.159-.489-.255-.784-.255s-.567.096-.788.257l.004-.003-5.301 3.851c-1.044.76-2.451-.263-2.051-1.491l2.024-6.232c.041-.123.065-.265.065-.412 0-.442-.215-.833-.546-1.076l-.004-.003-5.301-3.851c-1.045-.76-.507-2.413.784-2.413h6.552c.589 0 1.088-.381 1.265-.911l.003-.009 2.025-6.232zm-37.333 0c.4-1.228 2.137-1.228 2.536 0l2.025 6.232c.179.538.678.92 1.267.92h6.553c1.292 0 1.829 1.653.784 2.413l-5.301 3.851c-.335.245-.549.637-.549 1.078 0 .147.024.289.068.422l-.003-.009 2.024 6.232c.4 1.229-1.007 2.251-2.051 1.491l-5.301-3.851c-.217-.159-.489-.255-.784-.255s-.567.096-.788.257l.004-.003-5.301 3.851c-1.044.76-2.451-.263-2.051-1.491l2.024-6.232c.041-.123.065-.265.065-.412 0-.442-.215-.833-.546-1.076l-.004-.003-5.301-3.851c-1.044-.76-.507-2.413.784-2.413h6.552c.589 0 1.088-.381 1.265-.911l.003-.009 2.025-6.232zm-37.334 0c.4-1.228 2.137-1.228 2.536 0l2.025 6.232c.179.538.678.92 1.267.92h6.553c1.292 0 1.828 1.653.784 2.413l-5.301 3.851c-.335.245-.549.637-.549 1.078 0 .147.024.289.068.422l-.003-.009 2.024 6.232c.4 1.229-1.007 2.251-2.051 1.491l-5.301-3.851c-.217-.159-.489-.255-.784-.255s-.567.096-.788.257l.004-.003-5.3 3.851c-1.045.76-2.452-.263-2.053-1.491l2.027-6.232c.041-.123.065-.264.065-.411 0-.442-.215-.834-.547-1.077l-.004-.003-5.301-3.851c-1.045-.76-.507-2.413.784-2.413h6.552c.589 0 1.088-.381 1.265-.911l.003-.009 2.025-6.232z"/></symbol><symbol id="icon-rate4stars" viewBox="0 0 181 32"><path fill="var(--color1, #ab816c)" d="M14.732 3.903c.4-1.228 2.137-1.228 2.536 0l2.025 6.232c.179.538.678.92 1.267.92h6.553c1.292 0 1.828 1.653.784 2.413l-5.301 3.851c-.335.245-.549.637-.549 1.078 0 .147.024.289.068.422l-.003-.009 2.024 6.232c.4 1.229-1.007 2.251-2.051 1.491l-5.301-3.851c-.217-.159-.489-.255-.784-.255s-.567.096-.788.257l.004-.003-5.301 3.851c-1.044.76-2.451-.263-2.051-1.491l2.024-6.232c.041-.123.065-.265.065-.412 0-.442-.215-.833-.546-1.076l-.004-.003-5.301-3.851c-1.044-.76-.507-2.413.784-2.413h6.552c.589 0 1.088-.381 1.265-.911l.003-.009 2.025-6.232z"/><path fill="none" stroke="var(--color1, #ab816c)" stroke-width="1.3333" d="M164.699 4.109c.089-.271.339-.463.635-.463s.546.192.633.458l.001.005 2.024 6.231c.268.809 1.018 1.383 1.902 1.383 0 0 0 0 0 0h6.552c.368 0 .666.299.666.667 0 .22-.107.416-.272.537l-.002.001-5.301 3.852c-.502.368-.825.955-.825 1.618 0 .221.036.433.102.632l-.004-.014 2.025 6.232a.651.651 0 01.033.207c0 .368-.298.667-.667.667a.6668.6668 0 01-.395-.129l.002.001-5.3-3.852c-.326-.239-.734-.382-1.176-.382s-.85.143-1.182.386l.006-.004-5.3 3.852a.6623.6623 0 01-.393.128.6668.6668 0 01-.632-.88l-.001.005 2.025-6.231c.062-.185.098-.397.098-.618 0-.663-.322-1.25-.819-1.614l-.006-.004-5.301-3.852c-.167-.123-.274-.318-.274-.539 0-.368.298-.666.666-.667h6.552s0 0 0 0c.884 0 1.634-.573 1.898-1.369l.004-.014 2.024-6.231z"/><path fill="var(--color1, #ab816c)" d="M126.732 3.903c.4-1.228 2.137-1.228 2.536 0l2.025 6.232c.179.538.678.92 1.267.92h6.553c1.292 0 1.828 1.653.784 2.413l-5.301 3.851c-.335.245-.549.637-.549 1.078 0 .147.024.289.068.422l-.003-.009 2.024 6.232c.4 1.229-1.007 2.251-2.051 1.491l-5.301-3.851c-.217-.159-.489-.255-.784-.255s-.567.096-.788.257l.004-.003-5.301 3.851c-1.044.76-2.451-.263-2.051-1.491l2.024-6.232c.041-.123.065-.265.065-.412 0-.442-.215-.833-.546-1.076l-.004-.003-5.301-3.851c-1.045-.76-.507-2.413.784-2.413h6.552c.589 0 1.088-.381 1.265-.911l.003-.009 2.025-6.232zm-37.333 0c.4-1.228 2.137-1.228 2.536 0l2.025 6.232c.179.538.678.92 1.267.92h6.553c1.292 0 1.829 1.653.784 2.413l-5.301 3.851c-.335.245-.549.637-.549 1.078 0 .147.024.289.068.422l-.003-.009 2.024 6.232c.4 1.229-1.007 2.251-2.051 1.491l-5.301-3.851c-.217-.159-.489-.255-.784-.255s-.567.096-.788.257l.004-.003-5.301 3.851c-1.044.76-2.451-.263-2.051-1.491l2.024-6.232c.041-.123.065-.265.065-.412 0-.442-.215-.833-.546-1.076l-.004-.003-5.301-3.851c-1.044-.76-.507-2.413.784-2.413h6.552c.589 0 1.088-.381 1.265-.911l.003-.009 2.025-6.232zm-37.334 0c.4-1.228 2.137-1.228 2.536 0l2.025 6.232c.179.538.678.92 1.267.92h6.553c1.292 0 1.828 1.653.784 2.413l-5.301 3.851c-.335.245-.549.637-.549 1.078 0 .147.024.289.068.422l-.003-.009 2.024 6.232c.4 1.229-1.007 2.251-2.051 1.491l-5.301-3.851c-.217-.159-.489-.255-.784-.255s-.567.096-.788.257l.004-.003-5.3 3.851c-1.045.76-2.452-.263-2.053-1.491l2.027-6.232c.041-.123.065-.264.065-.411 0-.442-.215-.834-.547-1.077l-.004-.003-5.301-3.851c-1.045-.76-.507-2.413.784-2.413h6.552c.589 0 1.088-.381 1.265-.911l.003-.009 2.025-6.232z"/></symbol><symbol id="icon-phone" viewBox="0 0 32 32"><path d="M29.43 21.002h-.033c-2.028 0-3.979-.332-5.801-.946l.128.037c-.894-.305-1.991-.025-2.535.534l-3.599 2.718c-4.172-2.228-6.742-4.798-8.938-8.938l2.634-3.505c.47-.468.761-1.116.761-1.831 0-.281-.045-.553-.128-.806l.005.018c-.577-1.697-.911-3.652-.911-5.685v-.033.002C11.011 1.152 9.856 0 8.443 0H2.567C1.152 0 0 1.152 0 2.567 0 18.796 13.201 32 29.43 32c1.415 0 2.567-1.152 2.567-2.567v-5.858c0-1.418-1.152-2.57-2.567-2.57z"/></symbol><symbol id="icon-people" viewBox="0 0 35 32"><path fill="var(--color2, #674d40)" d="M11.847 0C8.164.006 5.18 2.99 5.174 6.673v.001c.005 3.684 2.99 6.669 6.673 6.675h.001c3.684-.005 6.669-2.991 6.675-6.674-.006-3.684-2.991-6.668-6.674-6.673h-.001zm0 12.229c-3.07-.004-5.558-2.492-5.56-5.562.007-3.067 2.491-5.552 5.558-5.56h.001c3.07.002 5.559 2.49 5.563 5.56-.005 3.069-2.491 5.556-5.559 5.563h-.001zm13.669-9.458c-2.766.002-5.007 2.244-5.009 5.009.003 2.765 2.244 5.006 5.009 5.008 2.765-.003 5.005-2.243 5.008-5.008-.002-2.765-2.243-5.006-5.008-5.009zm0 8.912c-2.151-.002-3.895-1.745-3.897-3.896.002-2.152 1.745-3.896 3.897-3.897 2.151.002 3.895 1.746 3.896 3.897-.002 2.151-1.745 3.894-3.896 3.896z"/><path fill="var(--color2, #674d40)" d="M34.476 20.131c-.505-3.043-2.396-5.609-5.616-6.953 0 0-1.427 1.079-3.344 1.044-2.096-.04-3.344-1.044-3.344-1.044s-1.556.58-2.812 1.788c-1.16-1.031-3.119-1.869-3.119-1.869s-1.795 1.364-4.4 1.344c-2.737-.02-4.389-1.344-4.389-1.344S1.536 15.13.287 22.03c0 0-1.337 3.657 1.76 9.123h19.607s1.392-2.423 1.637-3.896h9.752c2.395-3.631 1.433-7.125 1.433-7.125zM20.964 30.04H2.737c-2.381-4.524-1.352-7.827-1.352-7.827.598-3.509 2.855-6.387 5.921-7.834l.064-.027c1.285.756 2.83 1.203 4.48 1.203s3.195-.447 4.522-1.226l-.042.023c3.129 1.475 5.387 4.352 5.975 7.799l.009.063c-.007 0 .983 4.067-1.351 7.827zm11.431-3.896h-8.879c.341-1.965-.109-4.116-.109-4.116-.42-2.484-1.574-4.647-3.227-6.313l.001.001c.573-.519 1.207-.948 1.903-1.283 2.096 1.2 4.764 1.2 6.859 0 2.32 1.12 3.99 3.267 4.429 5.836l.007.047s.812 2.756-.983 5.827z"/></symbol><symbol id="icon-menu" viewBox="0 0 60 32"><path d="M2 0h56c1.105 0 2 .895 2 2s-.895 2-2 2H2C.895 4 0 3.105 0 2s.895-2 2-2zM2 14h56c1.105 0 2 .895 2 2s-.895 2-2 2H2c-1.105 0-2-.895-2-2s.895-2 2-2zM2 28h56c1.105 0 2 .895 2 2s-.895 2-2 2H2c-1.105 0-2-.895-2-2s.895-2 2-2z"/></symbol><symbol id="icon-location" viewBox="0 0 23 32"><path d="M11.733 1.195c6.48 0 11.733 5.253 11.733 11.733 0 2.655-.882 5.103-2.368 7.07l.021-.03-8.661 11.669-.085.064c-.158.19-.394.311-.659.311a.852.852 0 01-.705-.372l-.002-.003c-2.475-3.328-7.061-9.557-8.832-11.904C.815 17.842 0 15.48 0 12.928 0 6.448 5.253 1.195 11.732 1.195zm0 18.069c3.499 0 6.336-2.837 6.336-6.336s-2.837-6.336-6.336-6.336-6.336 2.837-6.336 6.336 2.837 6.336 6.336 6.336z"/></symbol><symbol id="icon-instagram" viewBox="0 0 32 32"><path d="M16.316 32h-.319c-2.508.006-4.826-.058-7.08-.195-2.067-.126-3.953-.84-5.455-2.065-1.45-1.182-2.44-2.781-2.942-4.75-.438-1.715-.461-3.398-.483-5.026-.018-1.113-.031-2.503-.036-3.894v-.066c.003-1.414.02-2.798.036-3.966.022-1.628.045-3.311.483-5.027.503-1.97 1.493-3.568 2.942-4.75C4.964 1.036 6.851.322 8.917.196c2.254-.137 4.572-.201 7.086-.195 2.509-.005 4.826.058 7.08.195 2.067.126 3.953.84 5.455 2.065 1.45 1.182 2.44 2.781 2.942 4.75.438 1.715.461 3.399.483 5.027.016 1.168.033 2.552.036 3.96v.006c-.005 1.455-.018 2.844-.04 4.232l.003-.271c-.022 1.628-.045 3.311-.483 5.026-.503 1.97-1.493 3.568-2.942 4.75-1.502 1.225-3.389 1.939-5.455 2.065-2.158.131-4.376.195-6.767.195zm-.319-2.501c2.468.006 4.733-.056 6.934-.19 1.562-.095 2.917-.602 4.027-1.507 1.026-.837 1.733-1.991 2.1-3.431.364-1.428.385-2.96.406-4.442.016-1.16.032-2.535.036-3.929-.005-1.45-.018-2.829-.039-4.205l.003.276c-.02-1.482-.041-3.015-.406-4.443-.367-1.44-1.074-2.594-2.1-3.431-1.11-.905-2.465-1.412-4.027-1.507-2.201-.134-4.467-.196-6.928-.19-2.467-.006-4.733.056-6.934.19-1.562.095-2.917.602-4.027 1.507-1.026.837-1.733 1.991-2.1 3.431-.364 1.428-.385 2.96-.406 4.443-.018 1.103-.031 2.482-.036 3.863v.068c.003 1.389.02 2.765.036 3.926.02 1.482.041 3.015.406 4.442.368 1.44 1.074 2.594 2.1 3.431 1.11.905 2.465 1.412 4.027 1.507 2.201.134 4.468.197 6.928.19zm-.06-5.686c-4.308 0-7.813-3.505-7.813-7.813s3.505-7.813 7.813-7.813S23.75 11.692 23.75 16s-3.505 7.813-7.813 7.813zm0-13.125c-2.929 0-5.313 2.383-5.313 5.313s2.383 5.313 5.313 5.313c2.93 0 5.313-2.383 5.313-5.313s-2.383-5.313-5.313-5.313zm8.688-5.001c-1.035 0-1.875.839-1.875 1.875s.84 1.875 1.875 1.875c1.036 0 1.875-.839 1.875-1.875s-.839-1.875-1.875-1.875z"/></symbol><symbol id="icon-facebook" viewBox="0 0 19 32"><path d="M16.657 0h-4.16c-4.665 0-7.68 3.099-7.68 7.882v3.621H.674c-.363 0-.657.294-.657.657v5.255c0 .371.286.674.657.674h4.16v13.255c0 .371.303.657.674.657h5.423c.371 0 .674-.286.674-.657V18.072h4.867c.354 0 .657-.286.657-.657V12.16c0-.363-.294-.657-.657-.657h-.018.001-4.867V8.421c0-1.465.354-2.223 2.291-2.223h2.796c.337 0 .64-.286.64-.657V.674.657c0-.357-.285-.647-.639-.657h-.001z"/></symbol><symbol id="icon-clock" viewBox="0 0 32 32"><path fill="var(--color2, #674d40)" d="M16 0C7.178 0 0 7.178 0 16s7.178 16 16 16 16-7.178 16-16S24.822 0 16 0zm0 30.933C7.766 30.933 1.067 24.234 1.067 16S7.766 1.067 16 1.067 30.933 7.766 30.933 16 24.234 30.933 16 30.933z"/><path fill="var(--color2, #674d40)" d="M16.533 13.878V8.469c0-.294-.239-.533-.533-.533-.294 0-.533.239-.533.533v5.409c-.748.2-1.325.777-1.521 1.509l-.003.015h-3.809c-.294 0-.533.239-.533.533 0 .295.239.533.533.533h3.809c.238.917 1.067 1.6 2.058 1.6 1.177 0 2.133-.957 2.133-2.133 0-.992-.683-1.819-1.6-2.058zM16 17.002c-.588 0-1.067-.478-1.067-1.067s.478-1.067 1.067-1.067c.588 0 1.067.478 1.067 1.067s-.478 1.067-1.067 1.067zm0-11.733c.294 0 .533-.238.533-.533v-.533c0-.294-.239-.533-.533-.533-.294 0-.533.239-.533.533v.533c0 .295.239.533.533.533zm0 21.333c-.294 0-.533.239-.533.533v.533c0 .295.239.533.533.533s.533-.239.533-.533v-.533c0-.294-.239-.533-.533-.533zm11.733-11.2H27.2c-.295 0-.533.239-.533.533s.239.533.533.533h.533c.295 0 .533-.239.533-.533s-.239-.533-.533-.533zm-22.933 0h-.533c-.295 0-.533.239-.533.533s.239.533.533.533H4.8c.295 0 .533-.239.533-.533s-.239-.533-.533-.533zm19.119-8.141l-.377.377c-.097.096-.156.23-.156.377s.06.281.156.377c.096.096.229.156.377.156h.002c.147 0 .28-.06.377-.156l.377-.377a.533.533 0 00.156-.377c0-.295-.239-.533-.533-.533a.533.533 0 00-.377.156zM7.703 23.478l-.377.377c-.097.096-.156.23-.156.377s.06.281.156.377c.096.097.23.156.377.156s.28-.06.377-.156l.377-.377c.097-.096.156-.23.156-.377 0-.295-.239-.533-.533-.533a.533.533 0 00-.377.156zm16.594 0c-.096-.097-.23-.157-.377-.157s-.281.06-.377.157c-.097.096-.156.23-.156.377s.06.281.156.377l.377.377c.096.097.229.156.376.156h.001c.147 0 .28-.06.377-.156.097-.096.156-.23.156-.377s-.06-.281-.156-.377l-.377-.377zM8.081 7.261c-.096-.097-.23-.156-.377-.156s-.281.06-.377.156c-.097.096-.156.23-.156.377s.06.281.156.377l.377.377a.527.527 0 00.377.156h.002c.147 0 .28-.06.376-.156.097-.096.156-.23.156-.377s-.06-.281-.156-.377l-.377-.377z"/></symbol><symbol id="icon-chefhat" viewBox="0 0 35 32"><path fill="var(--color2, #674d40)" d="M25.046 8.507a.489.489 0 01-.489-.489c-.085-3.892-3.26-7.014-7.164-7.014s-7.079 3.122-7.164 7.006v.008a.489.489 0 01-.978 0C9.327 3.579 12.943.009 17.394.009s8.067 3.57 8.143 8.002v.007c0 .27-.219.489-.489.489z"/><path fill="var(--color2, #674d40)" d="M26.474 19.581h-.003a.4884.4884 0 01-.489-.486v-.003a.4884.4884 0 01.486-.489c3.879-.024 7.021-3.148 7.073-7.018v-.005c-.04-3.895-3.206-7.037-7.107-7.037h-.055.003-.013c-.756 0-1.485.115-2.171.33l.052-.014c-.042.013-.09.02-.139.02a.489.489 0 01-.489-.489c0-.218.142-.402.338-.466l.003-.001c.72-.228 1.549-.359 2.408-.359h.011-.001.052c4.441 0 8.047 3.58 8.087 8.012v.004c-.054 4.411-3.626 7.969-8.036 8.001H26.475zm-18.166 0h-.006C3.888 19.549.316 15.99.262 11.585v-.005c.04-4.436 3.645-8.016 8.087-8.016h.054H8.4h.011c.859 0 1.688.131 2.467.375l-.058-.016c.206.061.354.248.354.47a.489.489 0 01-.644.464l.003.001c-.634-.201-1.364-.316-2.121-.316H8.4h.001-.053c-3.901 0-7.067 3.142-7.107 7.034v.004c.052 3.875 3.193 6.999 7.07 7.023h.002a.4886.4886 0 01.486.489c0 .136-.056.259-.145.348a.4886.4886 0 01-.344.141h-.003z"/><path fill="var(--color2, #674d40)" d="M26.474 31.756H8.308a.489.489 0 01-.489-.489V19.093a.489.489 0 01.978 0v11.684h17.187V19.093c0-.135.055-.258.143-.346a.4875.4875 0 01.346-.144c.27 0 .489.219.489.489V31.267c0 .27-.219.489-.489.489z"/><path fill="var(--color2, #674d40)" d="M29.88 27.014H11.714a.489.489 0 01-.489-.489c0-.135.055-.258.144-.346a.4866.4866 0 01.346-.143h18.166a.489.489 0 010 .978z"/></symbol><symbol id="icon-chat" viewBox="0 0 47 32"><path fill="var(--color2, #674d40)" d="M35.987 13.842C35.987 5.481 27.173 0 18.373 0 9.538 0 .759 5.506.759 13.842c0 3.154 1.381 6.237 3.889 8.684.096.094.133.236.096.371-.788 2.886-2.654 5.493-3.419 6.48a.9842.9842 0 00-.211.61c0 .164.04.319.111.456l-.003-.005c.165.327.499.547.883.547h.031c3.746-.093 8.089-1.151 10.773-3.79a.3824.3824 0 01.362-.097l-.003-.001c1.649.391 3.366.589 5.103.589 8.832 0 17.614-5.504 17.614-13.842zM13.58 25.79c-.583-.138-1.185.028-1.61.446-2.684 2.639-7.067 3.239-9.142 3.372.948-1.308 2.489-3.711 3.211-6.359.165-.605-.009-1.25-.453-1.684-2.279-2.223-3.484-4.894-3.484-7.723 0-6.893 7.3-12.501 16.272-12.501s16.272 5.608 16.272 12.501-7.3 12.501-16.272 12.501c-1.633 0-3.245-.186-4.793-.553z"/><path fill="var(--color2, #674d40)" d="M40.3 24.986c3.91-1.976 6.245-5.344 6.245-9.01 0-5.181-4.683-9.607-11.135-10.526a.6822.6822 0 00-.095-.007.6711.6711 0 00-.099 1.335h.004c5.784.823 9.983 4.692 9.983 9.198 0 3.149-2.059 6.07-5.509 7.813-.544.279-.91.837-.91 1.479 0 .122.013.24.038.354l-.002-.011c.327 1.537 1.023 2.96 1.58 3.924-3.961-.659-5.462-2.56-5.937-3.382-.293-.508-.841-.823-1.432-.823h-.054c-.744 0-1.488-.052-2.213-.153a.671.671 0 00-.093-.006c-.338 0-.617.249-.664.574v.004a.6643.6643 0 00-.007.093c0 .338.249.617.574.664h.004c.72.106 1.55.166 2.395.166h.064c.113 0 .211.06.266.15l.001.001c1.816 3.148 5.992 3.952 7.703 4.151a.856.856 0 00.117.007c.346 0 .649-.182.82-.455l.002-.004a.9507.9507 0 00.149-.515c0-.195-.058-.377-.158-.529l.002.004c-.515-.803-1.435-2.409-1.806-4.15a.3217.3217 0 01-.007-.064c0-.123.07-.229.172-.281l.002-.001zM7.937 11.443c-1.282 0-2.324 1.043-2.324 2.324s1.043 2.325 2.324 2.325 2.324-1.043 2.324-2.324c0-1.282-1.043-2.325-2.324-2.325zm0 3.308a.9841.9841 0 01-.983-.983c.001-.543.44-.982.983-.983.543.001.982.44.983.983a.9841.9841 0 01-.983.983zm6.631-3.308c-1.282 0-2.324 1.043-2.324 2.324s1.043 2.325 2.324 2.325 2.324-1.043 2.324-2.324c0-1.282-1.043-2.325-2.325-2.325zm0 3.308a.9841.9841 0 01-.983-.983c.001-.543.44-.982.983-.983.543.001.982.44.983.983a.9841.9841 0 01-.983.983zm6.631-3.308c-1.282 0-2.324 1.043-2.324 2.324s1.043 2.325 2.324 2.325 2.325-1.043 2.325-2.324c0-1.282-1.043-2.325-2.325-2.325zm0 3.308a.9841.9841 0 01-.983-.983c.001-.543.44-.982.983-.983.543.001.982.44.983.983a.9841.9841 0 01-.983.983zm6.631-3.308c-1.282 0-2.325 1.043-2.325 2.324s1.043 2.325 2.325 2.325 2.324-1.043 2.324-2.324c0-1.282-1.043-2.325-2.324-2.325zm0 3.308a.9841.9841 0 01-.983-.983c.001-.543.44-.982.983-.983.543.001.982.44.983.983 0 .542-.441.983-.983.983z"/></symbol></defs></svg>